<?xml version="1.0" encoding="utf-8"?>
<!-- Generator: Adobe Illustrator 26.0.1, SVG Export Plug-In . SVG Version: 6.00 Build 0)  -->
<svg version="1.1" id="Layer_1" xmlns="http://www.w3.org/2000/svg" xmlns:xlink="http://www.w3.org/1999/xlink" x="0px" y="0px"
	 viewBox="0 0 417.76 158.09" style="enable-background:new 0 0 417.76 158.09;" xml:space="preserve">
<path d="M0,106.46c0.44-2.02,0.81-4.06,1.33-6.06c3.46-13.46,12.56-21.95,24.74-27.58c12.21-5.65,25.19-7.84,38.55-8.01
	C72.41,64.72,80.2,64.8,88,64.8c0.91,0,1.81,0,3.12,0c-0.39-7,0.96-13.86-1.45-20.51c-2.99-8.24-9.5-12.34-17.66-13.3
	c-6.41-0.76-13.03-0.56-19.49,0.04c-7.29,0.67-12.83,4.98-17.34,10.56c-1.42,1.75-2.7,3.6-4.21,5.63
	c-7.92-4.92-15.84-9.85-23.91-14.87c3.67-8.82,9.64-15.48,17.57-20.46c8.62-5.4,18.17-8.05,28.18-9.09
	c11.92-1.24,23.75-0.75,35.32,2.72c21.18,6.35,33.55,22.45,33.66,44.54c0.17,32.79,0.04,65.58,0.04,98.36
	c0,0.74-0.08,1.48-0.14,2.53c-5.72,0-11.31,0.06-16.9-0.07c-0.69-0.02-1.49-0.95-2-1.64c-3.47-4.7-6.89-9.45-10.51-14.46
	c-1.27,1.33-2.33,2.59-3.53,3.7c-13.8,12.79-30.28,17.19-48.68,15.3c-10.23-1.05-19.57-4.4-27.35-11.36
	c-6.96-6.23-10.76-14.15-12.18-23.3C0.43,118.41,0.18,117.71,0,117C0,113.49,0,109.98,0,106.46z M90.92,86.43
	c-0.41-0.07-0.72-0.17-1.04-0.17c-9.8-0.18-19.58-0.03-29.26,1.69c-7.51,1.34-14.95,3.06-21.3,7.61
	c-10.39,7.45-9.24,21.65,2.15,27.49c4.49,2.3,9.34,3.14,14.3,3.25c10.44,0.23,20.06-2.31,28.24-9.07c3.4-2.81,6.51-6.2,6.8-10.75
	C91.23,99.85,90.92,93.17,90.92,86.43z"/>
<path d="M239.29,110.09c7.09,4.38,14.4,8.9,21.83,13.49c-3.01,7-7.38,12.69-13.1,17.37c-8.52,6.98-18.47,10.71-29.24,12.34
	c-14.88,2.25-29.61,1.69-43.8-3.72c-20.01-7.63-31.52-22.18-32.59-43.61c-0.87-17.44-0.46-34.94-0.37-52.41
	c0.04-7.23,1.48-14.29,4.48-20.94c5.53-12.23,14.83-20.63,27.27-25.22c20.33-7.5,40.85-7.53,61.09,0.35
	c11.05,4.3,19.52,11.85,25.01,22.49c0.42,0.8,0.76,1.64,1.23,2.66c-7.41,4.58-14.72,9.1-22.2,13.72c-0.88-1.06-1.71-2.09-2.56-3.1
	c-8.04-9.45-18.58-13.26-30.69-13.51c-6.68-0.14-13.22,0.53-19.32,3.53c-8.72,4.28-13.32,11.39-13.46,20.97
	c-0.23,15.8-0.23,31.61,0,47.42c0.15,10.04,4.96,17.71,14.37,21.32c14.86,5.7,29.44,4.71,42.81-4.5
	C233.4,116.46,236.04,113.19,239.29,110.09z"/>

<g>
	<polygon points="265.69,0 298.28,0 351.7,79.05 298.32,158.09 265.69,158.09 265.69,149.21 311.82,78.71 265.69,8.94 	"/>
	<polygon points="385.03,0 417.76,0 417.76,9.22 371.56,79.05 417.76,148.97 417.76,158.09 384.78,158.09 348.15,101.36 
		363.42,79.05 348.15,56.78 	"/>
</g>
</svg>
