<svg xmlns="http://www.w3.org/2000/svg" viewBox="0 0 126.6 30.8" xmlns:v="https://vecta.io/nano"><path d="M1.4 16c.1-.2.1-.4.2-.6C2 14 3 13.2 4.4 12.8c.9-.3 1.8-.3 2.8-.4h.2c.3 0 .4-.1.4-.4s0-.7-.1-1.1c-.1-.3-.2-.5-.4-.6-.7-.5-2.3-.4-2.6.8-.1.5-.2.6-.8.5-.5-.1-1-.1-1.5-.2-.5 0-.6-.2-.5-.7.4-1.6 1.4-2.4 3-2.8a6.33 6.33 0 0 1 3.6.1c1.3.5 2 1.5 2.1 2.9v4.5c0 .7.2 1.4.7 2 .1.1.1.2.2.3.1.2.1.4-.1.5l-1.5 1.3c-.3.2-.5.2-.7 0-.4-.3-.7-.7-.9-1.1-.1-.2-.2-.2-.3 0-.6.6-1.2 1-2 1.2-1.1.2-2.2.3-3.2-.4-.8-.5-1.1-1.2-1.3-2.1 0 0 0-.1-.1-.1v-1zm6.2-1.1v-.7c0-.2 0-.2-.2-.2-.4 0-.9 0-1.3.2-1.1.3-1.7 1-1.6 2.1 0 .6.2 1.1.7 1.3s1 .1 1.5-.2c.3-.2.4-.4.6-.7.3-.6.4-1.2.3-1.8zm13.9-5.1c.1-.2.2-.4.4-.6 1.1-1.7 3.8-1.8 5-.2.5.6.6 1.4.6 2.2v4.9 3.1c0 .5-.1.6-.6.6h-1.8c-.5 0-.6-.1-.6-.6v-6.6-.9c-.1-.7-.4-1-.9-1.1-.6-.1-1.3.2-1.6.7-.2.4-.2.8-.2 1.1V19c0 .5-.1.6-.7.6h-1.7c-.5 0-.6-.1-.6-.6v-6.4c0-.4 0-.9-.2-1.3-.2-.5-.5-.8-1-.8s-1 .1-1.3.6c-.2.4-.3.8-.3 1.2V19c0 .6-.1.7-.7.7h-1.8c-.4 0-.5-.1-.5-.5V8.5c0-.4.1-.5.5-.5h1.8a.47.47 0 0 1 .5.5v1.3c.5-1.2 1.4-1.9 2.8-2 1.5 0 2.3.7 2.9 2zM36 18.3c-.5.5-.9.9-1.5 1.2-1.1.5-2.2.5-3.3.1-1.3-.5-1.8-1.5-1.9-2.9-.1-2 1-3.5 3.2-4 .8-.2 1.7-.3 2.5-.4h.4c.1 0 .2 0 .1-.2 0-.4 0-.9-.1-1.3s-.3-.7-.7-.8c-1-.4-2.1.1-2.4 1.1-.1.4-.2.5-.7.4s-1.1-.1-1.6-.2c-.4 0-.6-.2-.5-.6.3-1.2 1-2.1 2.1-2.6 1.5-.6 3.1-.7 4.7-.1 1.3.5 2 1.5 2.1 2.9v4.5c0 .7.2 1.4.7 2 .1.1.1.2.2.3.1.2.1.4-.1.5l-1.5 1.3c-.3.2-.5.2-.7 0l-.6-.6c-.1-.1-.2-.3-.4-.6zm-.4-3.4v-.7c0-.2 0-.2-.2-.2-.3 0-.7 0-1 .1-1.3.2-2 1-1.9 2.2 0 .6.2 1.1.7 1.3s1 .1 1.5-.2c.3-.2.4-.4.6-.7.2-.6.3-1.2.3-1.8zm28.6-5c.2-.3.3-.6.5-.9.7-1.1 1.8-1.4 3-1.2 1.3.2 2.1 1 2.3 2.3.1.6.2 1.1.2 1.7v7.4c0 .4-.1.5-.5.5h-1.9c-.4 0-.5-.1-.5-.5v-6.1c0-.5 0-1-.1-1.6s-.5-1-1-1c-.6-.1-1 .2-1.3.6-.3.5-.4 1-.4 1.6V19c0 .5-.1.7-.7.7H62c-.4 0-.5-.1-.5-.5V8.5c0-.3.1-.5.5-.5h1.8c.3 0 .5.1.5.5-.1.5-.1 1-.1 1.4zm-4.3 4.3c0 1.3-.3 2.8-1.3 4-2.2 2.7-6.2 2.2-7.7-.9-.6-1.4-.8-2.8-.6-4.3.1-.8.3-1.6.6-2.4.9-1.8 2.3-2.8 4.3-2.7 1.9.1 3.2 1.1 4 2.8.5.9.7 2.1.7 3.5zm-6.5-.5v1.4c.1.7.1 1.3.5 1.9.5.9 1.7.9 2.3.1.2-.3.3-.6.4-.9.2-1 .2-2 .2-3 0-.8-.1-1.5-.4-2.2-.2-.5-.5-.8-1.1-.9s-1.1.1-1.4.6c-.1.2-.2.4-.3.7-.2.7-.2 1.5-.2 2.3zM29.2 28.4c-6.8-.1-12.7-2.3-17.8-6.8l-.1-.1c-.2-.1-.3-.3-.1-.5s.4-.1.5 0c.8.4 1.6.9 2.4 1.2 3.2 1.5 6.5 2.5 10 3.1 2.2.3 4.4.5 6.5.4 4.4-.1 8.7-1 12.7-2.7.1 0 .2-.1.3-.1.3-.1.5 0 .7.3s0 .5-.2.7c-.5.4-1.1.7-1.6 1.1-2.4 1.4-5.1 2.3-7.8 2.9-1.8.3-3.7.5-5.5.5zM107 8.1v-2-3.3c0-.3.1-.3.3-.3h1.2c.2 0 .3 0 .3.3v.7V19c0 .2 0 .3-.2.4-2.2.9-4.3 1-6.5 0-1.6-.7-2.5-2.1-2.8-3.8-.3-2 0-3.8 1.2-5.4 1.1-1.4 2.6-2.1 4.3-2.2.7-.2 1.4-.1 2.2.1zm0 5.8v-3.2c0-1.1 0-1.1-1.1-1.2-1.6-.2-3 .3-4 1.6-.8 1.1-1 2.3-.9 3.6.1 1 .4 1.9 1.2 2.6 1.4 1.2 2.9 1.4 4.7.9.2-.1.2-.2.2-.3l-.1-4zm-62.2 2c1 0 2 .1 2.9.4.4.1.7.3 1.1.5.3.2.4.4.4.8V19c0 .5-.3.6-.7.4-2.2-1-4.4-1.1-6.7-.2-.2.1-.3.2-.5.2-.3.1-.6 0-.6-.3v-1.8c0-.4.2-.7.4-1l4-5.7s.1-.1.1-.2h-.7-2.7c-.5 0-.6-.1-.6-.6V8.5c0-.4.1-.5.5-.5h6.8c.3 0 .5.1.5.5v.9a1.69 1.69 0 0 1-.3 1l-3 4.2-.9 1.3zm30.3-3.7l1.1-1 3-2.9c.1-.1.3-.2.5-.2h2c0 .2-.1.2-.2.3l-4.6 4.2c-.2.2-.1.3 0 .4l5.2 6.2c.1.1.2.2.3.4h-2.2c-.1 0-.2-.1-.3-.2l-4.5-5.5c-.1-.1-.1-.2-.3-.2v.3 5.3c0 .3-.1.3-.3.3h-1.1c-.3 0-.4-.1-.4-.4V8.6v-6c0-.2 0-.3.3-.3h1.2c.3 0 .3.1.3.3v9.1.5zm46.4 2h-3.4c-.2 0-.3.1-.3.3.1 1.2.4 2.3 1.4 3.1 1.1.9 2.3 1 3.7.6.5-.1.9-.3 1.3-.5.2-.1.2-.1.3.1.1.3.3.6.4.9.1.1 0 .2-.1.2-2 1.1-4.1 1.5-6.2.3-1.3-.7-2-1.9-2.4-3.3-.5-1.9-.5-3.9.5-5.7 1.3-2.5 4-2.9 5.9-2 1.2.6 1.9 1.6 2.3 2.9.3.9.4 1.9.4 2.8 0 .2-.1.3-.3.3h-3.5zm-.9-4.8c-.3 0-.5 0-.8.1-1.1.4-2.1 1.9-2 3.1 0 .2.1.1.2.1h5c.2 0 .3-.1.2-.3-.1-.6-.2-1.2-.5-1.8-.4-.7-1.1-1.2-2.1-1.2zm-30.8 6.1v3.9c0 .3-.1.3-.3.3h-1.1c-.3 0-.4 0-.4-.4v-5.7-5.2c0-.3.1-.3.3-.3h.9c.1 0 .2 0 .2.2 0 .3.1.6.2.9 0 .3.1.2.3.1.7-.5 1.5-1 2.4-1.3s1.8-.4 2.7 0c1.2.5 1.8 1.4 2.1 2.6.1.4.1.9.1 1.3v7.4c0 .3-.1.3-.3.3h-1.2c-.2 0-.3-.1-.3-.3v-6.6c0-.5 0-1.1-.1-1.6-.3-1.3-1.1-1.8-2.4-1.6-1.2.2-2.1.9-3 1.6-.1.1-.1.2-.1.3v4.1zm21.6-5.2V2.7c0-.3.1-.3.3-.3h1.2c.2 0 .3.1.3.3v6.9 7.2c0 .3 0 .6.1.9.1.4.3.6.7.6h.6c.2 0 .2 0 .2.2 0 .3.1.6.2.9 0 .1 0 .2-.1.3-.7.3-1.4.4-2.1.2-.9-.2-1.3-.9-1.3-2v-4.7c-.1-1-.1-2-.1-2.9zm-26 3.6v5.5c0 .2 0 .3-.3.3h-1.2c-.2 0-.3-.1-.3-.3v-3.9-7.1c0-.3.1-.3.3-.3h1.2c.2 0 .3.1.3.3v5.5zm-41.6 7.7c-.8 0-1.6.1-2.4.2-.2 0-.5.2-.6-.1s.2-.4.4-.5a6.22 6.22 0 0 1 2.6-.9c1-.1 2-.1 3 .1.7.2.9.3.8 1-.1 2-.8 3.7-2.1 5.1l-.3.3c-.1.1-.3.1-.4 0s-.1-.2 0-.3c.1-.3.3-.7.4-1 .3-.8.6-1.7.8-2.6v-.4c0-.4-.1-.6-.5-.7-.6-.2-1.2-.2-1.7-.2zM83.2 4.5c0-.7.6-1.2 1.3-1.2s1.2.6 1.2 1.2c0 .7-.6 1.3-1.3 1.3-.6-.1-1.2-.6-1.2-1.3z"/></svg>