<svg xmlns="http://www.w3.org/2000/svg" viewBox="0 0 78.8 30.8" xmlns:v="https://vecta.io/nano"><path d="M.4 10.7h2.9c1.5 0 2.8.9 3.2 2.3.4 1.3 0 2.7-1.1 3.6l-.1.1L8 20.3h-.1-2c-.1 0-.2 0-.2-.1l-2-2.7c-.1-.1-.2-.2-.3-.2H2.3v2.9H.5l-.1-9.5zm1.8 1.9v2.9h.1 1.2c.8 0 1.4-.7 1.4-1.4s-.5-1.4-1.2-1.5H2.2zm63.1-2.8v4.1l.2-.2c.8-1.1 2.3-1 3.1-.4.5.4.7.8.9 1.4.3.9.3 1.8.2 2.7 0 .6-.2 1.2-.5 1.8-.4.8-1.1 1.2-2 1.3-.6.1-1.2 0-1.8-.2-1-.3-1.5-1.1-1.7-2-.1-.3-.1-.6-.1-.9V9.8h1.7zm2.6 6.7v-.7a3.08 3.08 0 0 0-.3-1.3c-.4-.7-1.3-.7-1.7-.1-.2.3-.3.7-.4 1-.2.8-.1 1.6-.1 2.4a1.93 1.93 0 0 0 .3 1c.3.6 1.3.7 1.8.2.2-.2.3-.5.4-.8v-1.7zM51.7 9.8v6s0-.1.1-.1l2.1-2.5s.1-.1.2-.1H56h.1c0 .1-.1.1-.1.1l-2.5 2.9c-.1.1-.1.2 0 .2l2.7 3.8.1.1h-.2-1.7c-.1 0-.2 0-.3-.1l-2.4-3.4-.1-.1v3.6h-1.7V20 9.9v-.2c.7.1 1.3.1 1.8.1zM12.4 13v-.3h1.7v7.6h-1.7V20c-.1 0-.1 0-.1.1-1.4.9-3 .4-3.9-.6s-1.1-2.1-1-3.4c.1-.9.4-1.7.9-2.3.8-1 1.9-1.4 3.2-1.1.3.1.6.2.8.4 0-.1 0-.1.1-.1zM9 16.4c0 .6.1 1.1.4 1.5.6 1 2 1.1 2.6.1.5-.8.5-2.2-.1-3s-1.6-.8-2.3-.1c-.4.4-.6 1-.6 1.5zm9.4-.1l3.5 4h-.2-2.1c-.1 0-.2 0-.2-.1L17 17.3l-.1-.1v3.1h-1.8V10.1h1.8v5.2a1.38 1.38 0 0 1 .3-.4l1.7-2.1s.1-.1.2-.1h2.3l-3 3.6zm16.7.8c0 .8.6 1.5 1.3 1.8.6.2 1.4.1 2.1-.9l1.5.9c-.2.3-.5.5-.7.8-.8.8-1.9 1.1-3 .9-.9-.2-1.7-.7-2.2-1.5-1-1.4-1-3.6 0-5.1 1.5-2.1 4.6-1.8 5.7.5.3.7.4 1.5.4 2.3 0 .4 0 .4-.4.4h-4.4c-.1-.1-.2-.1-.3-.1zm3.2-1.6c-.1-.8-.7-1.5-1.7-1.4a1.7 1.7 0 0 0-1.4 1.4h3.1zM9.8 21.8h28c-.6.1-1.2.1-1.8.2l-3 .3-2.6.2-3 .3-2.6.2-3 .3-2.6.2-3 .3-2.6.2h-1.5-.1c-.8-.7-1.5-1.5-2.2-2.2zm18.3-9.1v7.6h-1.7v-.2c-.1 0-.1.1-.2.1a3.03 3.03 0 0 1-3.4-.4c-.7-.6-1-1.4-1-2.3v-4.7-.1h1.7v.2 4.3a1.92 1.92 0 0 0 .4 1.2c.4.4.8.5 1.4.4.5-.1.9-.5 1-1.1 0-.2.1-.4.1-.5V13v-.2c.5-.1 1.1-.1 1.7-.1zm12.7 0h1.7v.2l.6-.3c1.4-.5 2.8.1 3.6 1.3.3.6.5 1.2.5 1.8v4.4.1h-1.7V20v-4.2c0-.4-.1-.7-.3-1.1-.6-.9-1.9-.8-2.4.2-.1.2-.2.5-.2.8v4.4.2h-.2H41c-.1 0-.2 0-.2-.2v-4.8-2.5-.1zm15.4 4c0-.7.1-1.3.3-2 .4-1 1.2-1.6 2.2-1.8.5-.1 1.1-.1 1.6.1.9.2 1.5.8 1.8 1.6.5 1.4.6 2.8 0 4.1-.4 1.1-1.2 1.6-2.4 1.7-.6.1-1.3 0-1.9-.3-.9-.4-1.4-1.2-1.6-2.1.1-.4 0-.8 0-1.3zm4.6 0v-.5c0-.5-.1-.9-.3-1.4-.3-.7-1.2-1-1.8-.6-.4.2-.5.6-.6 1-.2 1-.2 2 0 3 .1.3.2.6.5.8.6.4 1.5.2 1.9-.5.3-.5.3-1.1.3-1.8zm9.7.1c0-.7.1-1.5.4-2.2.5-1.1 1.4-1.7 2.6-1.8.5 0 .9 0 1.3.1a3.14 3.14 0 0 1 1.8 1.6c.5 1.3.5 2.7 0 4.1-.4 1.1-1.2 1.6-2.4 1.8-.7.1-1.4 0-2-.3-.9-.4-1.3-1.2-1.5-2.1-.1-.3-.1-.7-.2-1.2zm4.7-.1v-.6c0-.4-.1-.9-.2-1.3-.3-.7-1.2-1-1.8-.6-.4.2-.5.6-.6 1-.2.7-.1 1.5-.1 2.2 0 .3.1.6.1.8.1.3.2.6.5.8.7.4 1.6.2 1.9-.6.2-.4.2-1.1.2-1.7zm-46.5-4h.9v-1.9h1.7v1.9h1.5v1.8h-.2-1.2c-.1 0-.1 0-.1.1v3.1a.9.9 0 0 0 .1.5c.2.4.6.6 1 .4.1 0 .2-.1.3-.1l1.1 1.5c-.6.3-1.3.5-2 .5-1.3-.1-2.3-1.2-2.3-2.6v-3.2-.2h-.7c-.2 0-.2 0-.2-.2v-1.4c.1-.1.1-.1.1-.2z"/></svg>