<svg xmlns="http://www.w3.org/2000/svg" viewBox="0 0 59.3 30.8" xmlns:v="https://vecta.io/nano"><path d="M52.8 22.2c-.8.6-1.6 1-2.6 1.2-1.1.2-2.2.1-3.2-.4-.9-.5-1.5-1.4-1.6-2.4-.1-.7 0-1.4.1-2l.3-2 .3-2.2c.1-.4.1-.8.2-1.2 0-.2.1-.3.4-.3h.2 2.8c.4 0 .5.1.4.5l-.5 3.2-.3 2c0 .3 0 .6.1.9.2.5.5.8 1.1.9s1.2 0 1.7-.4c.4-.3.6-.8.7-1.3l.4-2.6.3-2.2c0-.2.1-.4.1-.6s.1-.3.3-.3h.1H57c.4 0 .5.1.4.5l-.5 3.4-.4 2.9v.2a.47.47 0 0 0 .5.5h.6c.2 0 .4.1.4.4l-.2 1.7c0 .2-.1.4-.1.6 0 .1-.1.2-.2.3-.7.2-1.5.3-2.2.2-.3 0-.7-.1-1-.2-.7-.4-1.2-.7-1.5-1.3zm-19.9 0a5.92 5.92 0 0 1-3.3 1.3c-.9 0-1.9-.1-2.7-.6s-1.3-1.3-1.5-2.3c-.1-.7 0-1.3.1-2l.3-1.8.3-2c.1-.5.2-1.1.2-1.6 0-.2.1-.3.4-.4h3.1c.3 0 .4.2.4.4l-.4 2.4-.4 2.6c0 .3-.1.7 0 1 .1.6.5.9 1.1 1s1.2 0 1.7-.4.7-.9.8-1.4l.3-2.2.3-2.2c0-.3.1-.6.1-1 0-.2.1-.2.3-.3h.2 2.9c.4 0 .5.1.4.5l-.5 3.5-.4 2.8v.2a.47.47 0 0 0 .5.5h.6c.2 0 .4.1.4.4l-.2 1.7c0 .2-.1.3-.1.5s-.1.4-.3.4c-1 .2-2 .3-3 .1-.8-.1-1.1-.4-1.6-1.1zm6-1.1c0-.5.1-.9.2-1.4l.3-1.8.3-2.1.3-2 .3-2.2.3-1.9c0-.2.1-.3.3-.4l3.2-.9c.3-.1.5.1.4.3 0 .4-.1.8-.2 1.2l-.3 2-.3 2-.3 2-.3 2-.3 1.8c0 .3.2.6.5.6h.6c.3 0 .4.1.4.4l-.3 2.2c0 .3-.2.4-.5.5-.7.2-1.5.2-2.2.2-.6-.1-1.2-.2-1.8-.6-.4-.3-.6-.8-.7-1.3.1-.3.1-.4.1-.6zm-16.8 2.4c-.6 0-1.3-.1-1.9-.4-.7-.4-1.1-1-1.1-1.7 0-.5.1-1 .1-1.5l.3-2 .3-2 .3-2.1.3-2 .3-2c0-.3.1-.4.4-.5l3.1-.9c.3-.1.5.1.4.4l-.4 2.4-.4 2.3-.3 2.3-.3 2.2c-.1.5-.2 1-.2 1.5-.1.4.2.7.6.7h.6c.2 0 .4.1.4.4l-.3 2v.1a.47.47 0 0 1-.5.5c-.6.2-1.1.3-1.7.3z"/><path d="M15.9 10.6c-.2-1.3-.8-2.5-1.8-3.4-.6-.5-1.2-1-1.9-1.4-.7-.3-1.4-.6-2.2-.8-.2-.1-.3 0-.3.2v.3l-.3 1.4c0 .2 0 .2-.2.2l-1.4-.3c-.4 0-.7-.1-1.1-.1-.1 0-.2.1-.2.3l-.3 2.1c0 .1 0 .1-.1.2.1.1 0 .2 0 .2-.1.5-.1 1-.2 1.6l-.3 1.8c-.1.4-.1.8-.2 1.3s-.1 1.1-.2 1.6c.1 0 .2-.1.3-.2.3-.1.5-.3.8-.3.1 0 .1-.1.2-.1.2-.1.5-.2.7-.3l.6-.3c.1-.1.2-.1.4-.2.1 0 .1 0 .2.1.2.7.7 1.1 1.3 1.2.2 0 .4.1.5.1.2 0 .2.1.2.3-.2.4-.4.8-.5 1.2-.2.7-.2 1.5.2 2.2a1.38 1.38 0 0 0 .3.4c.5.4.9.9 1.3 1.4.2-.1.4-.1.5-.2-.2.1-.3.2-.5.2.2.2.3.4.5.6l.1.1c.3.4.6.7.8 1.1.2.3.3.6.5.9l.3.8c.1.3.2.5.2.8 0-.2.1-.4.1-.7.1-.5.1-.9.2-1.4s.1-1 .2-1.4c0-.2 0-.4.1-.6.1-.3.1-.6.2-1v-.2-.2c.1-.4.1-.8.2-1.2.2-.9.3-1.9.4-2.8l.3-2.2c.1-.6.2-1.2.2-1.9 0-.4 0-.9-.1-1.4z" fill="#111"/><path d="M8.5 14.5l1-7.6s.1.3-.2.2c0 0-1.2-.3-2.3-.3 0 0-.4-.1-.4.2L6 11l-.6 3.9-.8 4.7s-.3.7.7.6c0 0 6.9 1.4 7.5 5.9l.9-.3s.9 0-.7-2.8c0 0-1.3-2-2.6-3.2 0 0-1.5-1.3 0-3.8 0 0 .2-.3-.7-.4.1.1-1.2-.1-1.2-1.1z" fill="#3d3d3d"/><path d="M13.9 24.8l-.3-.8c-.1 0-.3.1-.4.1l-.6.3c-.1 0-.1 0-.1.2-.5-.7-1.1-1.3-1.8-1.9-.3-.2-.6-.5-1-.7h0c-.4-.3-.9-.5-1.3-.7s-.8-.3-1.2-.5l-1.9-.6c-.2 0-.4-.1-.5-.1s-.2-.1-.2-.3c0-.3.1-.5.1-.8.1-.2.1-.5.1-.8s.1-.6.1-.8c.1-.5.1-1 .2-1.4 0-.1 0-.2.1-.2.1-.5.2-1.1.2-1.6.1-.4.1-.8.2-1.3l.3-1.8c.1-.6.2-1.1.2-1.6 0-.1.1-.2 0-.2h-.2-.3c-.7-.1-1.4-.1-2.1 0-.1 0-.2.1-.2.2s-.1.5-.1.9c-.1.5-.2 1.1-.2 1.6l-.4 2.4c-.1.4-.1.7-.1 1.1v.1c-.1.4-.1.8-.2 1.2l-.4 2.5c-.1.3-.1.7-.1 1l-.3 1.9c0 .2 0 .3.2.3h.4l2.1.1c.6 0 1.2.1 1.8.2.4 0 1 .1 1.6.2h.1a10.64 10.64 0 0 1 2.5.9c.9.5 1.7 1.1 2.3 2 .1.2.3.2.4.2l.9-.3c.2 0 .3-.1.3-.3-.1-.2-.1-.5-.2-.7zm.9-4.5v-.2c.1.1.1.1 0 .2z"/><path d="M14.8 20.5v-.2c0 .1.1.1 0 .2zM2.4 15.4s0 .1 0 0c0 .1 0 0 0 0z"/><g fill="#222"><path d="M4.7 19c.1-.2.1-.5.1-.8s.1-.6.1-.8c.1-.5.1-1 .2-1.4 0-.1 0-.2.1-.2s.2-.1.3-.2l.8-.3c.1 0 .1-.1.2-.1.2-.1.5-.2.7-.3l.6-.3c.1-.1.2-.1.4-.2.1 0 .1 0 .2.1.2.7.7 1.1 1.3 1.3.2 0 .4.1.5.1.2 0 .2.1.2.3-.2.4-.4.8-.5 1.2-.2.7-.2 1.5.2 2.2H10c-.5.1-.9.4-1.4.6-.4.2-.8.4-1.3.5-.1 0-.2.1-.3.1l-1.9-.6c-.2 0-.4-.1-.5-.1s-.2-.1-.2-.3c.2-.2.3-.5.3-.8z"/><path d="M7.2 20.7c.1-.1.2-.1.3-.1.4-.1.8-.4 1.3-.5l1.4-.6h.1a1.38 1.38 0 0 0 .3.4c.5.4.9.9 1.3 1.4.1.2.3.4.4.6l.1.1c-.1 0-.2.1-.3.1-.5.2-.9.4-1.3.6-.3-.2-.6-.5-1-.7-.4-.3-.9-.5-1.3-.7-.5-.2-.9-.4-1.3-.6z"/><path d="M10.7 22.6L12 22c.1 0 .2-.1.3-.1.3.4.6.7.8 1.1.2.3.3.6.5.9-.1 0-.3.1-.4.1l-.6.3c-.1 0-.1 0-.1.2-.5-.7-1.2-1.3-1.8-1.9z"/></g><path d="M8.6 14.2l1-7.3s0 .2-.3.1c0 0-1.2-.3-2.3-.3 0 0-.4-.1-.4.2l-.6 4-.6 3.9-.8 4.7s-.3.7.7.6c0 0 6.9 1.4 7.5 5.9l.9-.3s1.1-.2-.6-2.8c0 0-1.3-2-2.6-3.1 0 0-1.4-1.2 0-3.7 0 0 .3-.4-.7-.4 0 0-1.3-.5-1.2-1.5z" fill="#0c0c0c"/></svg>